# xmcd
#
# Track frame offsets:
#	150
#	23687
#	41264
#	62813
#	74501
#	91248
#	108628
#	127265
#	145195
#	165001
#	201464
#	242954
#	274301
#	304061
#
# Disc length: 4277 seconds
# Revision: 0
# Processed by: cddbd v1.5.2PL0 Copyright (c) Steve Scherf et al.
# Submitted via: dBpowerAMP V12.0
#
DISCID=cc10b30e
DTITLE=Gary Davis - Chocolate Star: The Very Best of Gary Davis
DYEAR=2006
DGENRE=Soul
TTITLE0=Gee Dee
TTITLE1=Last Night
TTITLE2=Stay With me
TTITLE3=The Time for Love is Now
TTITLE4=Got To Get Your Love
TTITLE5=Super Jake
TTITLE6=The Professor Here
TTITLE7=The Pop
TTITLE8=Gotta Get Your Love (Kenny Dope Remix)
TTITLE9=The Professor (is) Space Walking
TTITLE10=The Pop (12" Version)
TTITLE11=The Professor (is) Slow Walking
TTITLE12=The Pop feat. M.C. Chocolate Star (Vocal Version)
TTITLE13=Gee Dee (Alternative Mix)
EXTD=
EXTT0=
EXTT1=
EXTT2=
EXTT3=
EXTT4=
EXTT5=
EXTT6=
EXTT7=
EXTT8=
EXTT9=
EXTT10=
EXTT11=
EXTT12=
EXTT13=
PLAYORDER=
